<mxfile host="app.diagrams.net" modified="2023-08-31T21:07:38.707Z" agent="Mozilla/5.0 (Windows NT 10.0; Win64; x64) AppleWebKit/537.36 (KHTML, like Gecko) Chrome/116.0.0.0 Safari/537.36" etag="ytAYKpueBeDlzRXMYO2i" version="21.7.0" type="github">
  <diagram id="prtHgNgQTEPvFCAcTncT" name="Page-1">
    <mxGraphModel dx="1056" dy="574" grid="1" gridSize="10" guides="1" tooltips="1" connect="1" arrows="1" fold="1" page="1" pageScale="1" pageWidth="827" pageHeight="1169" math="0" shadow="0">
      <root>
        <mxCell id="0" />
        <mxCell id="1" parent="0" />
        <mxCell id="wMmN5L7jRD9f_JNUNZQY-5" style="edgeStyle=orthogonalEdgeStyle;rounded=0;orthogonalLoop=1;jettySize=auto;html=1;entryX=0;entryY=0.5;entryDx=0;entryDy=0;" edge="1" parent="1" source="wMmN5L7jRD9f_JNUNZQY-1" target="wMmN5L7jRD9f_JNUNZQY-3">
          <mxGeometry relative="1" as="geometry" />
        </mxCell>
        <mxCell id="wMmN5L7jRD9f_JNUNZQY-1" value="Buses" style="rounded=1;whiteSpace=wrap;html=1;" vertex="1" parent="1">
          <mxGeometry x="100" y="230" width="120" height="60" as="geometry" />
        </mxCell>
        <mxCell id="wMmN5L7jRD9f_JNUNZQY-6" style="edgeStyle=orthogonalEdgeStyle;rounded=0;orthogonalLoop=1;jettySize=auto;html=1;entryX=0;entryY=0.5;entryDx=0;entryDy=0;" edge="1" parent="1" source="wMmN5L7jRD9f_JNUNZQY-3" target="wMmN5L7jRD9f_JNUNZQY-4">
          <mxGeometry relative="1" as="geometry" />
        </mxCell>
        <mxCell id="wMmN5L7jRD9f_JNUNZQY-3" value="Central" style="rounded=1;whiteSpace=wrap;html=1;" vertex="1" parent="1">
          <mxGeometry x="350" y="230" width="120" height="60" as="geometry" />
        </mxCell>
        <mxCell id="wMmN5L7jRD9f_JNUNZQY-4" value="Visores" style="rounded=1;whiteSpace=wrap;html=1;" vertex="1" parent="1">
          <mxGeometry x="620" y="230" width="120" height="60" as="geometry" />
        </mxCell>
        <mxCell id="wMmN5L7jRD9f_JNUNZQY-8" value="" style="curved=1;endArrow=classic;html=1;rounded=0;entryX=0.5;entryY=1;entryDx=0;entryDy=0;exitX=0.5;exitY=1;exitDx=0;exitDy=0;" edge="1" parent="1">
          <mxGeometry width="50" height="50" relative="1" as="geometry">
            <mxPoint x="670" y="290" as="sourcePoint" />
            <mxPoint x="150" y="290" as="targetPoint" />
            <Array as="points">
              <mxPoint x="480" y="360" />
              <mxPoint x="420" y="340" />
              <mxPoint x="400" y="340" />
              <mxPoint x="370" y="330" />
              <mxPoint x="210" y="330" />
            </Array>
          </mxGeometry>
        </mxCell>
      </root>
    </mxGraphModel>
  </diagram>
</mxfile>
